<svg width="28" height="34" viewBox="0 0 28 34" fill="none" xmlns="http://www.w3.org/2000/svg">
<path d="M26.1985 16.3333L2.72176 0.142464C2.47323 -0.0283494 2.15103 -0.0461593 1.8855 0.0922725C1.61916 0.232323 1.45239 0.507568 1.45239 0.808718V33.1904C1.45239 33.4916 1.61916 33.7676 1.8855 33.9077C2.00369 33.9692 2.13322 34 2.26194 34C2.42303 34 2.58332 33.9514 2.72176 33.8567L26.1985 17.6658C26.4179 17.5145 26.5482 17.2659 26.5482 16.9996C26.5482 16.7332 26.4171 16.4847 26.1985 16.3333Z" fill="white"/>
<path d="M26.4832 15.9223L26.4824 15.9217L3.00562 -0.269143L3.00496 -0.269596C2.6026 -0.54614 2.08243 -0.574269 1.65435 -0.351092L1.65435 -0.351095L1.65279 -0.350274C1.22254 -0.124034 0.952393 0.321343 0.952393 0.808718V33.1904C0.952393 33.6773 1.22205 34.1237 1.65279 34.3502L1.65464 34.3512C1.84497 34.4503 2.0538 34.5 2.26194 34.5C2.52382 34.5 2.78252 34.421 3.0041 34.2693L3.00562 34.2683L26.4824 18.0774L26.4825 18.0774C26.8372 17.8326 27.0482 17.4302 27.0482 16.9996C27.0482 16.5681 26.8357 16.1665 26.4832 15.9223Z" stroke="black" stroke-opacity="0.5"/>
</svg>
